<?xml version="1.0" encoding="utf-8"?>
<svg viewBox="0 0 64 64" xmlns="http://www.w3.org/2000/svg">
  <path fill="#ffffff"
    d="M 58.667 21.333 C 61.612 21.333 64 18.945 64 16 L 64 5.333 C 64 2.388 61.612 0 58.667 0 L 48 0 C 45.055 0 42.667 2.388 42.667 5.333 L 42.667 8 L 21.333 8 L 21.333 5.333 C 21.333 2.388 18.946 0 16 0 L 5.333 0 C 2.388 0 0 2.388 0 5.333 L 0 16 C 0 18.945 2.388 21.333 5.333 21.333 L 8 21.333 L 8 42.667 L 5.333 42.667 C 2.388 42.667 0 45.054 0 48 L 0 58.667 C 0 61.612 2.388 64 5.333 64 L 16 64 C 18.946 64 21.333 61.612 21.333 58.667 L 21.333 56 L 42.667 56 L 42.667 58.667 C 42.667 61.612 45.055 64 48 64 L 58.667 64 C 61.612 64 64 61.612 64 58.667 L 64 48 C 64 45.054 61.612 42.667 58.667 42.667 L 56 42.667 L 56 21.333 L 58.667 21.333 Z M 50.667 42.667 L 48 42.667 C 45.055 42.667 42.667 45.054 42.667 48 L 42.667 50.667 L 21.333 50.667 L 21.333 48 C 21.333 45.054 18.946 42.667 16 42.667 L 13.333 42.667 L 13.333 21.333 L 16 21.333 C 18.946 21.333 21.333 18.945 21.333 16 L 21.333 13.333 L 42.667 13.333 L 42.667 16 C 42.667 18.945 45.055 21.333 48 21.333 L 50.667 21.333 L 50.667 42.667 Z"/>
</svg>