<?xml version="1.0" standalone="no"?>
<!DOCTYPE svg PUBLIC "-//W3C//DTD SVG 20010904//EN"
 "http://www.w3.org/TR/2001/REC-SVG-20010904/DTD/svg10.dtd">
<svg version="1.0" xmlns="http://www.w3.org/2000/svg"
 width="64.000000pt" height="64.000000pt" viewBox="0 0 64.000000 64.000000"
 preserveAspectRatio="xMidYMid meet">

<g transform="translate(0.000000,64.000000) scale(0.100000,-0.100000)"
fill="#000000" stroke="none">
<path d="M250 591 c-80 -26 -155 -87 -182 -147 -6 -13 -17 -24 -25 -24 -7 0
-13 -4 -13 -10 0 -6 29 -10 66 -10 57 0 65 2 60 16 -14 37 91 104 164 104 73
0 178 -67 164 -104 -5 -14 3 -16 60 -16 37 0 66 4 66 10 0 6 -7 10 -15 10 -8
0 -23 17 -34 38 -41 79 -129 133 -226 138 -33 2 -71 0 -85 -5z"/>
<path d="M253 465 c-18 -7 -45 -32 -60 -54 -21 -30 -35 -40 -55 -41 -16 0 -28
-4 -28 -10 0 -5 11 -10 25 -10 14 0 25 -4 25 -10 0 -5 -20 -10 -45 -10 -25 0
-45 -4 -45 -10 0 -5 20 -10 45 -10 33 0 45 -4 45 -15 0 -12 -14 -15 -65 -15
-37 0 -65 -4 -65 -10 0 -6 28 -10 65 -10 63 0 65 -1 109 -44 75 -75 158 -75
231 0 29 30 52 44 69 44 14 0 26 5 26 10 0 6 -11 10 -25 10 -16 0 -25 6 -25
15 0 11 12 15 45 15 25 0 45 5 45 10 0 6 -20 10 -45 10 -33 0 -45 4 -45 15 0
12 14 15 65 15 37 0 65 4 65 10 0 6 -29 10 -67 10 -66 0 -69 1 -97 36 -48 60
-124 79 -193 49z m7 -33 c0 -5 -13 -21 -30 -37 -35 -33 -42 -14 -8 22 22 23
38 30 38 15z m160 -17 c35 -37 14 -44 -23 -7 -22 22 -27 32 -16 32 9 0 26 -11
39 -25z m-47 -12 l32 -18 -34 -3 c-20 -2 -38 2 -43 10 -8 10 -11 10 -15 1 -2
-7 -11 -13 -19 -13 -9 0 -14 -11 -14 -35 0 -32 2 -35 30 -35 20 0 30 -5 30
-15 0 -13 -11 -15 -57 -13 -52 3 -58 5 -61 26 -8 55 40 111 96 112 13 0 37 -8
55 -17z m45 -71 c5 -36 -18 -81 -49 -97 -37 -20 -63 -19 -102 2 l-32 18 34 3
c20 2 38 -2 43 -10 8 -10 11 -10 15 0 2 6 11 12 19 12 9 0 14 11 14 35 0 32
-2 35 -30 35 -20 0 -30 5 -30 15 0 13 11 15 58 13 51 -3 57 -5 60 -26z m-2
-110 c-36 -36 -46 -19 -10 19 16 17 30 25 33 18 2 -6 -8 -23 -23 -37z m-171 8
c17 -18 23 -30 15 -30 -15 0 -60 39 -60 52 0 16 17 8 45 -22z"/>
<path d="M30 360 c0 -5 5 -10 10 -10 6 0 10 5 10 10 0 6 -4 10 -10 10 -5 0
-10 -4 -10 -10z"/>
<path d="M70 360 c0 -5 5 -10 10 -10 6 0 10 5 10 10 0 6 -4 10 -10 10 -5 0
-10 -4 -10 -10z"/>
<path d="M30 320 c0 -5 5 -10 10 -10 6 0 10 5 10 10 0 6 -4 10 -10 10 -5 0
-10 -4 -10 -10z"/>
<path d="M590 320 c0 -5 5 -10 10 -10 6 0 10 5 10 10 0 6 -4 10 -10 10 -5 0
-10 -4 -10 -10z"/>
<path d="M550 270 c0 -5 5 -10 10 -10 6 0 10 5 10 10 0 6 -4 10 -10 10 -5 0
-10 -4 -10 -10z"/>
<path d="M590 270 c0 -5 5 -10 10 -10 6 0 10 5 10 10 0 6 -4 10 -10 10 -5 0
-10 -4 -10 -10z"/>
<path d="M30 230 c0 -5 6 -10 13 -10 7 0 21 -15 31 -32 30 -52 67 -88 121
-116 69 -36 179 -38 245 -3 58 30 97 67 121 114 11 20 26 37 34 37 8 0 15 5
15 10 0 6 -29 10 -66 10 -57 0 -65 -2 -60 -16 14 -37 -91 -104 -164 -104 -73
0 -178 67 -164 104 5 14 -3 16 -60 16 -37 0 -66 -4 -66 -10z"/>
</g>
</svg>
