<?xml version="1.0" standalone="no"?>
<!DOCTYPE svg PUBLIC "-//W3C//DTD SVG 20010904//EN"
 "http://www.w3.org/TR/2001/REC-SVG-20010904/DTD/svg10.dtd">
<svg version="1.0" xmlns="http://www.w3.org/2000/svg"
 width="64.000000pt" height="64.000000pt" viewBox="0 0 64.000000 64.000000"
 preserveAspectRatio="xMidYMid meet">

<g transform="translate(0.000000,64.000000) scale(0.100000,-0.100000)"
fill="#000000" stroke="none">
<path d="M307 633 c-10 -16 -146 -457 -142 -461 2 -2 38 16 79 42 l76 46 76
-46 c41 -26 77 -44 79 -42 2 2 -28 107 -68 233 -65 207 -85 252 -100 228z"/>
<path d="M92 247 c-35 -35 -59 -66 -56 -70 4 -4 24 -7 45 -7 37 0 37 0 59 66
12 36 20 67 18 69 -2 3 -32 -24 -66 -58z"/>
<path d="M480 304 c0 -5 9 -38 21 -72 21 -62 21 -62 59 -62 21 0 41 4 44 8 3
5 -24 37 -59 72 -36 36 -65 60 -65 54z"/>
<path d="M275 189 c-16 -10 -30 -23 -29 -29 1 -5 2 -17 3 -25 1 -12 16 -15 71
-15 39 0 70 4 70 9 0 5 3 16 6 24 3 9 -7 22 -29 36 -41 25 -53 25 -92 0z"/>
<path d="M50 124 c0 -3 15 -33 32 -65 43 -79 60 -78 56 4 l-3 62 -42 3 c-24 2
-43 0 -43 -4z"/>
<path d="M507 123 c-13 -13 -8 -123 6 -123 11 0 77 106 77 124 0 8 -75 8 -83
-1z"/>
</g>
</svg>
